<mxfile host="app.diagrams.net" agent="Mozilla/5.0 (Windows NT 10.0; Win64; x64) AppleWebKit/537.36 (KHTML, like Gecko) Chrome/124.0.0.0 Safari/537.36" version="26.2.14">
  <diagram name="Page-1" id="e3a06f82-3646-2815-327d-82caf3d4e204">
    <mxGraphModel dx="2135" dy="1013" grid="1" gridSize="10" guides="1" tooltips="1" connect="1" arrows="1" fold="1" page="1" pageScale="1.5" pageWidth="1169" pageHeight="826" background="none" math="0" shadow="0">
      <root>
        <mxCell id="0" style=";html=1;" />
        <mxCell id="1" style=";html=1;" parent="0" />
        <mxCell id="hY7NImJjKEYf4peFuwMV-13" value="" style="rounded=0;whiteSpace=wrap;html=1;" vertex="1" parent="1">
          <mxGeometry x="40" y="10" width="1670" height="1000" as="geometry" />
        </mxCell>
        <mxCell id="y-3M5qs4vGqmPAsc8c7I-2" value="&lt;font style=&quot;font-size: 36px;&quot;&gt;Embedded Module (ESP32/Arduino)&lt;/font&gt;" style="whiteSpace=wrap;html=1;fillColor=#EDEDED;fontSize=14;strokeColor=none;verticalAlign=top;" parent="1" vertex="1">
          <mxGeometry x="324" y="672" width="311" height="311" as="geometry" />
        </mxCell>
        <mxCell id="6a7d8f32e03d9370-60" value="&lt;span style=&quot;font-size: 36px;&quot;&gt;Host Cloud&lt;/span&gt;" style="whiteSpace=wrap;html=1;fillColor=#d5e8d4;fontSize=14;strokeColor=none;verticalAlign=top;" parent="1" vertex="1">
          <mxGeometry x="740" y="130" width="602" height="408" as="geometry" />
        </mxCell>
        <mxCell id="6a7d8f32e03d9370-59" value="&lt;font style=&quot;font-size: 36px;&quot;&gt;Embedded Module (RPi)&lt;/font&gt;" style="whiteSpace=wrap;html=1;fillColor=#EDEDED;fontSize=14;strokeColor=none;verticalAlign=top;" parent="1" vertex="1">
          <mxGeometry x="148" y="279" width="311" height="311" as="geometry" />
        </mxCell>
        <mxCell id="6a7d8f32e03d9370-52" style="edgeStyle=none;rounded=0;html=1;startSize=10;endSize=10;jettySize=auto;orthogonalLoop=1;fontSize=14;endArrow=none;endFill=0;strokeWidth=2;entryX=0.187;entryY=0.401;entryDx=0;entryDy=0;entryPerimeter=0;exitX=0.961;exitY=0.626;exitDx=0;exitDy=0;exitPerimeter=0;" parent="1" source="6a7d8f32e03d9370-15" target="6a7d8f32e03d9370-27" edge="1">
          <mxGeometry relative="1" as="geometry">
            <mxPoint x="1264" y="433.3071886099124" as="sourcePoint" />
          </mxGeometry>
        </mxCell>
        <mxCell id="6a7d8f32e03d9370-15" value="&lt;font style=&quot;font-size: 24px;&quot;&gt;Web Server&lt;/font&gt;&lt;div&gt;&lt;font style=&quot;font-size: 24px;&quot;&gt;(Node.js)&lt;/font&gt;&lt;/div&gt;" style="verticalLabelPosition=bottom;aspect=fixed;html=1;verticalAlign=top;strokeColor=none;shape=mxgraph.citrix.cache_server;fillColor=#66B2FF;gradientColor=#0066CC;fontSize=14;labelPosition=center;align=center;" parent="1" vertex="1">
          <mxGeometry x="1183" y="376.5" width="71" height="97.5" as="geometry" />
        </mxCell>
        <mxCell id="6a7d8f32e03d9370-16" value="" style="verticalLabelPosition=top;aspect=fixed;html=1;verticalAlign=bottom;strokeColor=none;shape=mxgraph.citrix.chassis;fillColor=#66B2FF;gradientColor=#0066CC;fontSize=14;labelPosition=center;align=center;" parent="1" vertex="1">
          <mxGeometry x="978" y="178" width="137.5" height="177.5" as="geometry" />
        </mxCell>
        <mxCell id="6a7d8f32e03d9370-47" style="edgeStyle=none;rounded=0;html=1;startSize=10;endSize=10;jettySize=auto;orthogonalLoop=1;fontSize=14;endArrow=none;endFill=0;strokeWidth=2;exitX=0.5;exitY=0;exitDx=0;exitDy=0;entryX=0.032;entryY=0.867;entryDx=0;entryDy=0;entryPerimeter=0;" parent="1" source="qWdEIRByMjNaHTq9e7Bd-4" target="6a7d8f32e03d9370-16" edge="1">
          <mxGeometry relative="1" as="geometry">
            <mxPoint x="637" y="78.90992647058806" as="sourcePoint" />
          </mxGeometry>
        </mxCell>
        <mxCell id="6a7d8f32e03d9370-48" style="edgeStyle=none;rounded=0;html=1;startSize=10;endSize=10;jettySize=auto;orthogonalLoop=1;fontSize=14;endArrow=none;endFill=0;strokeWidth=2;exitX=0.474;exitY=-0.028;exitDx=0;exitDy=0;exitPerimeter=0;entryX=0.275;entryY=0.864;entryDx=0;entryDy=0;entryPerimeter=0;" parent="1" source="qWdEIRByMjNaHTq9e7Bd-6" target="6a7d8f32e03d9370-16" edge="1">
          <mxGeometry relative="1" as="geometry">
            <mxPoint x="636.8097345132742" y="213" as="sourcePoint" />
            <mxPoint x="1014" y="350" as="targetPoint" />
          </mxGeometry>
        </mxCell>
        <mxCell id="6a7d8f32e03d9370-55" style="edgeStyle=none;rounded=0;html=1;startSize=10;endSize=10;jettySize=auto;orthogonalLoop=1;fontSize=14;endArrow=none;endFill=0;strokeWidth=2;entryX=0.545;entryY=0.921;entryDx=0;entryDy=0;entryPerimeter=0;" parent="1" source="6a7d8f32e03d9370-15" target="6a7d8f32e03d9370-16" edge="1">
          <mxGeometry relative="1" as="geometry">
            <mxPoint x="1193" y="414.4934923460305" as="sourcePoint" />
          </mxGeometry>
        </mxCell>
        <mxCell id="6a7d8f32e03d9370-27" value="&lt;font style=&quot;font-size: 24px;&quot;&gt;Client&lt;/font&gt;" style="verticalLabelPosition=top;aspect=fixed;html=1;verticalAlign=bottom;strokeColor=none;shape=mxgraph.citrix.thin_client;fillColor=#66B2FF;gradientColor=#0066CC;fontSize=14;labelPosition=center;align=center;" parent="1" vertex="1">
          <mxGeometry x="1621" y="411" width="75" height="71" as="geometry" />
        </mxCell>
        <mxCell id="6a7d8f32e03d9370-62" value="Architecture Diagram" style="text;strokeColor=none;fillColor=none;html=1;fontSize=24;fontStyle=1;verticalAlign=middle;align=center;" parent="1" vertex="1">
          <mxGeometry x="393" y="30" width="861" height="40" as="geometry" />
        </mxCell>
        <mxCell id="qWdEIRByMjNaHTq9e7Bd-4" value="&lt;font style=&quot;font-size: 24px;&quot;&gt;Message Broker&lt;/font&gt;&lt;div&gt;&lt;font style=&quot;font-size: 24px;&quot;&gt;(MQTT)&lt;/font&gt;&lt;/div&gt;" style="shape=message;html=1;html=1;outlineConnect=0;labelPosition=center;verticalLabelPosition=bottom;align=center;verticalAlign=top;" parent="1" vertex="1">
          <mxGeometry x="813" y="413.5" width="60" height="40" as="geometry" />
        </mxCell>
        <mxCell id="qWdEIRByMjNaHTq9e7Bd-6" value="" style="image;aspect=fixed;html=1;points=[];align=center;fontSize=12;image=img/lib/azure2/databases/Azure_Database_PostgreSQL_Server.svg;" parent="1" vertex="1">
          <mxGeometry x="993" y="413.5" width="48" height="64" as="geometry" />
        </mxCell>
        <mxCell id="qWdEIRByMjNaHTq9e7Bd-8" value="" style="image;sketch=0;aspect=fixed;html=1;points=[];align=center;fontSize=12;image=img/lib/mscae/Docker.svg;" parent="1" vertex="1">
          <mxGeometry x="1154.23" y="141.20000000000005" width="148.54" height="121.8" as="geometry" />
        </mxCell>
        <mxCell id="qWdEIRByMjNaHTq9e7Bd-9" value="" style="shape=image;html=1;verticalAlign=top;verticalLabelPosition=bottom;labelBackgroundColor=#ffffff;imageAspect=0;aspect=fixed;image=https://cdn1.iconfinder.com/data/icons/fruit-136/64/Fruit_iconfree_Filled_Outline_raspberry-healthy-organic-food-fruit_icon-128.png" parent="1" vertex="1">
          <mxGeometry x="366" y="376.5" width="86.5" height="86.5" as="geometry" />
        </mxCell>
        <mxCell id="qWdEIRByMjNaHTq9e7Bd-10" value="" style="dashed=0;outlineConnect=0;html=1;align=center;labelPosition=center;verticalLabelPosition=bottom;verticalAlign=top;shape=mxgraph.weblogos.arduino;fillColor=#36868D;strokeColor=none" parent="1" vertex="1">
          <mxGeometry x="500" y="772" width="106.4" height="50" as="geometry" />
        </mxCell>
        <mxCell id="qWdEIRByMjNaHTq9e7Bd-11" value="" style="verticalLabelPosition=bottom;html=1;verticalAlign=top;strokeWidth=1;align=center;outlineConnect=0;dashed=0;outlineConnect=0;shape=mxgraph.aws3d.ebs2;fillColor=#ECECEC;strokeColor=#5E5E5E;aspect=fixed;" parent="1" vertex="1">
          <mxGeometry x="340" y="762" width="107.33" height="70" as="geometry" />
        </mxCell>
        <mxCell id="qWdEIRByMjNaHTq9e7Bd-13" value="" style="sketch=0;outlineConnect=0;fontColor=#232F3E;gradientColor=none;fillColor=#7AA116;strokeColor=none;dashed=0;verticalLabelPosition=bottom;verticalAlign=top;align=center;html=1;fontSize=12;fontStyle=0;aspect=fixed;pointerEvents=1;shape=mxgraph.aws4.iot_thing_temperature_humidity_sensor;" parent="1" vertex="1">
          <mxGeometry x="500" y="858.5" width="78" height="78" as="geometry" />
        </mxCell>
        <mxCell id="qWdEIRByMjNaHTq9e7Bd-15" value="" style="shape=image;html=1;verticalAlign=top;verticalLabelPosition=bottom;labelBackgroundColor=#ffffff;imageAspect=0;aspect=fixed;image=https://cdn0.iconfinder.com/data/icons/phosphor-fill-vol-4/256/speaker-simple-high-fill-128.png" parent="1" vertex="1">
          <mxGeometry x="372" y="848.5" width="98" height="98" as="geometry" />
        </mxCell>
        <mxCell id="qWdEIRByMjNaHTq9e7Bd-16" value="" style="shape=image;html=1;verticalAlign=top;verticalLabelPosition=bottom;labelBackgroundColor=#ffffff;imageAspect=0;aspect=fixed;image=https://cdn1.iconfinder.com/data/icons/2-building-line-filled/614/Factory-128.png" parent="1" vertex="1">
          <mxGeometry x="286.3" y="470" width="58" height="58" as="geometry" />
        </mxCell>
        <mxCell id="qWdEIRByMjNaHTq9e7Bd-19" value="" style="verticalLabelPosition=bottom;html=1;verticalAlign=top;strokeWidth=1;align=center;outlineConnect=0;dashed=0;outlineConnect=0;shape=mxgraph.aws3d.ebs2;fillColor=#ECECEC;strokeColor=#5E5E5E;aspect=fixed;" parent="1" vertex="1">
          <mxGeometry x="160" y="379" width="92" height="60" as="geometry" />
        </mxCell>
        <mxCell id="qWdEIRByMjNaHTq9e7Bd-20" value="" style="sketch=0;outlineConnect=0;fontColor=#232F3E;gradientColor=none;fillColor=#232F3D;strokeColor=none;dashed=0;verticalLabelPosition=bottom;verticalAlign=top;align=center;html=1;fontSize=12;fontStyle=0;aspect=fixed;pointerEvents=1;shape=mxgraph.aws4.magnifying_glass_2;" parent="1" vertex="1">
          <mxGeometry x="261.5" y="439" width="140" height="140" as="geometry" />
        </mxCell>
        <mxCell id="qWdEIRByMjNaHTq9e7Bd-21" style="edgeStyle=none;rounded=0;html=1;startSize=10;endSize=10;jettySize=auto;orthogonalLoop=1;fontSize=14;endArrow=none;endFill=0;strokeWidth=2;exitX=0.5;exitY=0;exitDx=0;exitDy=0;" parent="1" source="y-3M5qs4vGqmPAsc8c7I-2" edge="1">
          <mxGeometry relative="1" as="geometry">
            <mxPoint x="632.5" y="650" as="sourcePoint" />
            <mxPoint x="480" y="436" as="targetPoint" />
          </mxGeometry>
        </mxCell>
        <mxCell id="qWdEIRByMjNaHTq9e7Bd-22" value="&lt;font style=&quot;font-size: 24px;&quot;&gt;WiFi&lt;/font&gt;" style="shape=mxgraph.signs.tech.rss;html=1;pointerEvents=1;fillColor=#000000;strokeColor=none;verticalLabelPosition=bottom;verticalAlign=top;align=center;" parent="1" vertex="1">
          <mxGeometry x="603.33" y="357.75" width="40" height="38.5" as="geometry" />
        </mxCell>
        <mxCell id="qWdEIRByMjNaHTq9e7Bd-23" style="edgeStyle=none;rounded=0;html=1;startSize=10;endSize=10;jettySize=auto;orthogonalLoop=1;fontSize=14;endArrow=none;endFill=0;strokeWidth=2;exitX=0;exitY=0.5;exitDx=0;exitDy=0;" parent="1" source="qWdEIRByMjNaHTq9e7Bd-4" target="6a7d8f32e03d9370-59" edge="1">
          <mxGeometry relative="1" as="geometry">
            <mxPoint x="590" y="437" as="sourcePoint" />
            <mxPoint x="590" y="375" as="targetPoint" />
          </mxGeometry>
        </mxCell>
        <mxCell id="y-3M5qs4vGqmPAsc8c7I-9" value="&lt;font style=&quot;font-size: 24px;&quot;&gt;Database&lt;/font&gt;&lt;div&gt;&lt;font style=&quot;font-size: 24px;&quot;&gt;(Postgres)&lt;/font&gt;&lt;/div&gt;" style="text;html=1;align=center;verticalAlign=middle;whiteSpace=wrap;rounded=0;" parent="1" vertex="1">
          <mxGeometry x="987" y="491" width="60" height="30" as="geometry" />
        </mxCell>
        <mxCell id="hY7NImJjKEYf4peFuwMV-2" value="" style="endArrow=classic;html=1;rounded=0;" edge="1" parent="1">
          <mxGeometry width="50" height="50" relative="1" as="geometry">
            <mxPoint x="490" y="470" as="sourcePoint" />
            <mxPoint x="738" y="470" as="targetPoint" />
          </mxGeometry>
        </mxCell>
        <mxCell id="hY7NImJjKEYf4peFuwMV-3" value="&lt;font style=&quot;font-size: 24px;&quot;&gt;Sensor Readings&lt;/font&gt;" style="edgeLabel;html=1;align=center;verticalAlign=middle;resizable=0;points=[];" vertex="1" connectable="0" parent="hY7NImJjKEYf4peFuwMV-2">
          <mxGeometry x="0.005" y="2" relative="1" as="geometry">
            <mxPoint x="1" as="offset" />
          </mxGeometry>
        </mxCell>
        <mxCell id="hY7NImJjKEYf4peFuwMV-8" value="" style="endArrow=classic;html=1;rounded=0;" edge="1" parent="1">
          <mxGeometry width="50" height="50" relative="1" as="geometry">
            <mxPoint x="1594" y="408.84000000000003" as="sourcePoint" />
            <mxPoint x="1350" y="408" as="targetPoint" />
          </mxGeometry>
        </mxCell>
        <mxCell id="hY7NImJjKEYf4peFuwMV-9" value="&lt;font style=&quot;font-size: 24px;&quot;&gt;Client Request&lt;/font&gt;" style="edgeLabel;html=1;align=center;verticalAlign=middle;resizable=0;points=[];" vertex="1" connectable="0" parent="hY7NImJjKEYf4peFuwMV-8">
          <mxGeometry x="0.005" y="2" relative="1" as="geometry">
            <mxPoint x="1" as="offset" />
          </mxGeometry>
        </mxCell>
        <mxCell id="hY7NImJjKEYf4peFuwMV-10" value="" style="endArrow=classic;html=1;rounded=0;" edge="1" parent="1">
          <mxGeometry width="50" height="50" relative="1" as="geometry">
            <mxPoint x="1350" y="483" as="sourcePoint" />
            <mxPoint x="1600" y="483" as="targetPoint" />
          </mxGeometry>
        </mxCell>
        <mxCell id="hY7NImJjKEYf4peFuwMV-11" value="&lt;font style=&quot;font-size: 24px;&quot;&gt;Server Response&lt;/font&gt;" style="edgeLabel;html=1;align=center;verticalAlign=middle;resizable=0;points=[];" vertex="1" connectable="0" parent="hY7NImJjKEYf4peFuwMV-10">
          <mxGeometry x="0.005" y="2" relative="1" as="geometry">
            <mxPoint x="1" as="offset" />
          </mxGeometry>
        </mxCell>
      </root>
    </mxGraphModel>
  </diagram>
</mxfile>
